<?xml version="1.0" standalone="no"?>
<!DOCTYPE svg PUBLIC "-//W3C//DTD SVG 20010904//EN"
 "http://www.w3.org/TR/2001/REC-SVG-20010904/DTD/svg10.dtd">
<svg version="1.0" xmlns="http://www.w3.org/2000/svg"
 width="1200.000000pt" height="221.000000pt" viewBox="0 0 1200.000000 221.000000"
 preserveAspectRatio="xMidYMid meet">

<g transform="translate(0.000000,221.000000) scale(0.100000,-0.100000)"
fill="#000000" stroke="none">
<path d="M9172 1653 c-2 -10 -927 -13 -4587 -13 l-4585 0 0 -50 0 -50 4581 0
c3651 0 4583 3 4592 13 8 8 10 30 6 62 -3 28 -7 44 -7 38z"/>
<path d="M11528 1596 c-2 -19 -2 -39 0 -45 3 -8 75 -11 238 -11 l234 0 0 45 0
45 -234 0 -234 0 -4 -34z"/>
<path d="M10230 1575 c-98 -28 -161 -66 -260 -161 l-95 -92 -93 -10 c-152 -18
-252 -77 -298 -177 -26 -56 -32 -146 -12 -190 17 -37 66 -63 134 -71 55 -6
104 -32 104 -56 0 -4 -76 -8 -170 -8 -139 0 -170 -3 -170 -14 0 -21 88 -23
938 -20 661 3 754 1 759 -12 3 -8 2 -18 -2 -22 -3 -4 -346 -7 -760 -7 -414 0
-757 -4 -761 -8 -5 -4 -2 -12 6 -17 9 -6 320 -10 766 -10 703 0 752 1 766 18
9 9 18 26 20 37 3 18 13 21 98 25 165 9 105 25 -112 30 l-203 5 30 27 29 27
139 -6 c118 -5 139 -4 135 8 -3 10 -25 15 -74 17 -97 4 -97 4 -74 54 11 24 20
60 20 81 0 41 -2 40 88 37 61 -2 98 12 86 31 -3 5 -43 9 -89 9 -83 0 -85 0
-100 30 -8 16 -15 34 -15 39 0 6 42 11 103 13 141 4 131 22 -16 28 l-118 5
-27 35 c-15 19 -27 39 -27 45 0 6 32 11 73 13 142 6 58 42 -99 42 -25 0 -42 7
-58 24 l-23 24 64 6 c34 3 83 7 108 9 25 1 45 7 45 12 0 6 -55 12 -135 15
-110 4 -140 9 -162 24 -16 10 -28 22 -28 27 0 4 43 10 95 11 149 5 116 22 -52
29 -122 4 -159 9 -208 28 -79 31 -280 39 -365 16z m269 -26 c82 -13 196 -60
258 -106 57 -43 133 -114 133 -125 0 -4 -24 -8 -54 -8 -45 0 -56 4 -68 23 -80
121 -270 191 -456 168 -102 -13 -167 -45 -248 -122 -43 -42 -68 -59 -87 -59
-15 0 -27 4 -27 8 0 17 130 141 176 168 97 57 233 76 373 53z m-24 -159 l0
-75 -202 -3 c-227 -3 -230 -2 -165 60 73 70 153 98 277 95 l90 -2 0 -75z m131
34 c48 -25 124 -90 124 -106 0 -4 -47 -8 -104 -8 l-104 0 -7 59 c-4 33 -4 65
0 70 10 17 39 13 91 -15z m366 -192 c44 -48 92 -142 86 -170 -3 -12 -15 0 -42
40 -47 70 -109 113 -184 129 -108 22 -200 -17 -281 -119 -37 -45 -46 -66 -55
-121 l-11 -66 -163 -3 c-90 -1 -170 2 -179 6 -9 5 -24 42 -34 83 -20 78 -65
143 -128 186 -89 61 -250 46 -328 -29 l-33 -32 0 25 c0 13 -3 33 -6 45 -4 16
2 24 34 38 22 10 55 22 73 26 19 4 299 7 622 7 l588 -1 41 -44z m-1012 -64
c73 -44 112 -116 108 -197 -4 -77 -28 -77 -43 0 -7 31 -22 70 -34 88 -25 35
-90 76 -138 86 -95 20 -197 -67 -207 -177 -2 -28 -9 -43 -17 -43 -25 0 -16
115 11 161 47 78 108 112 205 113 52 1 69 -4 115 -31z m914 18 c51 -21 113
-82 131 -130 20 -53 17 -130 -6 -134 -13 -2 -18 8 -24 45 -14 96 -82 164 -171
171 -67 6 -95 -1 -134 -34 -41 -35 -70 -94 -70 -144 0 -34 -3 -41 -17 -38 -22
4 -29 60 -13 117 13 51 71 121 118 143 45 21 140 23 186 4z m-1294 -20 c0 -17
-38 -66 -51 -66 -16 0 -10 37 12 64 20 26 39 27 39 2z m-6 -126 c-8 -30 -14
-67 -14 -82 0 -57 -43 -15 -55 54 -7 35 -5 38 28 51 19 8 38 20 42 27 14 22
13 5 -1 -50z m315 45 c102 -52 110 -179 17 -243 -90 -61 -216 4 -216 113 0
107 108 178 199 130z m957 -1 c46 -22 74 -70 74 -129 0 -43 -4 -52 -44 -91
-39 -40 -48 -44 -92 -44 -111 0 -176 102 -126 200 35 71 116 98 188 64z m-208
-237 c12 -11 22 -24 22 -29 0 -4 -160 -8 -355 -8 -195 0 -355 3 -355 8 1 4 9
17 19 29 19 22 23 23 287 25 323 4 352 2 382 -25z"/>
<path d="M10337 1213 c-3 -5 -2 -15 2 -22 12 -18 96 -11 96 9 0 11 -13 16 -47
18 -25 2 -49 -1 -51 -5z"/>
<path d="M9769 1021 c-20 -20 -29 -39 -29 -61 0 -37 47 -90 80 -90 56 0 110
62 95 109 -9 30 -63 71 -92 71 -14 0 -37 -13 -54 -29z m95 -27 c21 -20 20 -43
-1 -66 -32 -36 -83 -17 -83 32 0 14 5 31 12 38 17 17 54 15 72 -4z"/>
<path d="M10739 1035 c-40 -22 -54 -64 -36 -108 32 -75 117 -75 156 0 18 35
13 53 -23 89 -37 37 -57 41 -97 19z m75 -41 c21 -20 20 -43 -1 -66 -20 -22
-46 -23 -67 -2 -31 30 -9 84 34 84 10 0 26 -7 34 -16z"/>
<path d="M11141 1530 c-22 -13 -3 -30 34 -30 29 0 55 15 44 24 -11 9 -67 13
-78 6z"/>
<path d="M11003 1518 c2 -7 19 -13 37 -13 18 0 35 6 38 13 2 8 -9 12 -38 12
-29 0 -40 -4 -37 -12z"/>
<path d="M11314 1089 c-8 -14 16 -31 34 -24 8 3 18 5 23 5 5 0 9 7 9 15 0 18
-55 21 -66 4z"/>
<path d="M11262 943 c2 -13 12 -18 38 -18 51 0 48 29 -3 33 -33 3 -38 1 -35
-15z"/>
<path d="M9774 639 c-9 -15 15 -29 52 -29 31 0 60 21 47 33 -11 11 -91 8 -99
-4z"/>
<path d="M9935 639 c-12 -18 16 -29 65 -27 32 2 45 7 45 18 0 19 -99 27 -110
9z"/>
<path d="M10120 636 c0 -21 17 -29 46 -22 38 10 30 36 -11 36 -24 0 -35 -5
-35 -14z"/>
<path d="M10506 641 c-15 -24 26 -31 165 -29 120 3 144 5 144 18 0 13 -25 15
-152 18 -84 1 -154 -2 -157 -7z"/>
</g>
</svg>
